<?xml version="1.0" encoding="utf-8"?>
<!-- Generator: Adobe Illustrator 21.0.0, SVG Export Plug-In . SVG Version: 6.00 Build 0)  -->
<svg version="1.1" xmlns="http://www.w3.org/2000/svg" xmlns:xlink="http://www.w3.org/1999/xlink" x="0px" y="0px"
	 viewBox="0 250 1210 700" style="enable-background:new 0 0 1200 1200;" xml:space="preserve">
<style type="text/css">
	.st0{fill: #fff;}
	.st1{fill:transparent;}
	.st2{fill:#E3E3E3;}
	.st3{fill:#EFEFEF;}
	.st4{fill:#6A79A8;}
	.st5{opacity:0.5;}
	.st6{fill:#F4CAC1;}
</style>
<g id="Ñëîé_1_1_">
	<rect id="XMLID_1_" class="st0" width="1200" height="1200"/>
	<path class="st1" d="M357.9,1034.7c-21.2-4.6-275.6-45.8-256.9-350.2s42.2-395.9,141.2-429.4s339.4-191.9,528.1-41.3
		s392.3,285.8,311.5,526.3s-94,320.8-304.9,308.5C566.1,1036.5,458.6,1056.5,357.9,1034.7z"/>
</g>
<g id="Ñëîé_2">
	<g>
		<path class="st2" d="M329.7,866c-24.2-5.9-46.6-7.3-75.3,0.8c-24.9,7-51.6,20-77.4,21.7c-7.7,0.5-15.9-0.3-22.2-4.7
			c-6.3-4.4-10-13.2-6.7-20.2c4-8.2,6.1-12.4,13.8-16.5c8.1-4.3,18.7-5.7,27.6-7.3c158.6-29.2,320.5-19.2,480.6-16.5
			c40,0.7,79.9,5.3,119.5,11.1c38.3,5.6,74.6,11.9,109.7,29.1c4.2,2.1,8.5,4.3,11.8,7.7c10.8,11.1,2.3,22.3-11.1,24
			c-7.7,1-15.5-1-23.1-2.7c-33.5-7.3-65.1-6.3-98.9-5.3c-31.8,1-65.8-10.7-97.7-14c-34.9-3.6-70.2-3.5-105,0.4
			c-34.2,3.8-68,17.4-102,16.9c-36.6-0.6-74.6-3.2-109.7-14.7C351.5,872.1,340.4,868.6,329.7,866z"/>
		<path class="st3" d="M529.9,775.7c-3.6,8.7-13.6,12.8-22.7,15.4c-102.8,30.1-214.8,1.2-319.5,24.1c-16.8,3.7-34.3,9.4-44.9,22.9
			c-4.7,6-7.7,13.7-6.4,21.3c2.1,12.5,15.7,20.4,28.4,20.6c12.7,0.2,24.7-5.2,36.3-10.4c87-38.5,182.6-48.3,277.1-59.2L529.9,775.7z
			"/>
		<path class="st0" d="M528.9,782.8c-3.5,6.5-13.4,9.6-22.4,11.8c-102.3,24.5-214.7,6.3-318.9,25.6c-16.7,3.1-34.2,7.7-44.5,17.8
			c-4.6,4.5-7.5,10.2-6.1,15.7c2.4,9.1,16.1,14.4,28.7,14.3c12.7-0.2,24.6-4.5,36.1-8.5c86.2-30.2,181.7-39.8,275.9-50.1
			L528.9,782.8z"/>
		<g>
			<path class="st4" d="M379,804.7c-38.7,0.1-77.3-1.5-116,0.2c-18.7,0.8-37.5,2.4-56,5.4c-15.6,2.5-31.9,5.4-46.3,12.3
				c-12.2,5.8-24.9,16.3-26.8,30.6c-1.7,13.5,9,23.6,21.2,26.8c15.5,4.1,31.2-2.7,45.2-8.8c17.3-7.6,34.9-14.3,53-20
				c40.4-12.8,82.1-20.8,124-27c2.3-0.3,4-3,0.7-2.5c-33.2,4.9-66.3,11-98.7,19.6c-16,4.2-31.8,9.1-47.3,14.7
				c-15.9,5.7-31.1,13.3-47,19c-14.6,5.2-34,5.9-43.3-9c-9.2-14.7,3.7-31.3,16.2-38.8c13.6-8.2,30.2-11.1,45.6-13.7
				c17.8-3,35.8-4.7,53.8-5.6c39.9-2,79.9-0.3,119.8-0.4C378.8,807.3,382.2,804.7,379,804.7L379,804.7z"/>
		</g>
		<path class="st3" d="M811.3,866c20.9,7.6,42,13.9,64.3,15.3c10.6,0.7,30,1.7,28.6-14.7c-1.1-13.1-15.4-9.5-24.1-15.7
			c-36.2-25.6-21.6-98-23-135.3c-2-53.2-6.7-106.4-17.1-158.7c-10.5-52.8-33.1-99-48.5-149.8c-8-26.3-6.1-52.3-17.8-79
			c-4.3-9.9-16.2-33.1-30.7-19.6c-5.3,4.9-7.9,14.1-10.7,20.5c-6.4,14.5-10.5,34.7-20.6,47c-8.9,10.9-31.7,5.4-44.2,5.5
			c-45.9,0.5-91.7,1.4-137.6,1.4c-26,0-36.9-26.6-47.3-46.3c-6.3-12.1-12.3-19.3-23.9-26.7c-2.4-1.5-5-3-7.8-3
			c-3.3,0.1-6.2,2.4-8,5.2c-1.7,2.8-2.5,6.1-3.2,9.3c-7.3,32.2-15,65.1-26.7,96c-29.3,76.9-44.1,156.5-42.2,239
			c1.1,50.3,12.3,99.4,14.3,149.6c0.5,11.1,0.9,25.2-10,32.1c-9,5.7-34.5-4.1-30.2,15.8c3,13.7,41.8,16.3,53,17.6
			c47,5.4,96.6-27.2,142.3-35.5c57.1-10.4,116.3-6.6,173.6-0.1C747.8,839.9,779.3,854.4,811.3,866z"/>
		<path class="st0" d="M801.3,851.4c17.9,6.5,36,11.5,54.6,15.4c3.5,0.7,7.2,1.5,10.7,0.7c7.3-1.6,13-10.9,7-16.9
			c-2-2-4.6-3.4-6.8-5.2c-6.5-4.9-10.6-12.5-13.5-20.1c-6-15.7-9.4-30.5-10.2-47.2c-1.1-23,2.3-46,1.4-69
			c-1.9-50.3-6.3-100.7-16.2-150.2c-10-50-31.3-93.7-45.9-141.7c-7.5-24.9-5.8-49.5-16.8-74.8c-4.1-9.4-15.3-31.3-29.1-18.6
			c-5,4.7-7.5,13.3-10.2,19.4c-6,13.7-10,32.8-19.5,44.5c-8.4,10.3-30,5.1-41.8,5.2c-43.4,0.5-86.8,1.3-130.2,1.3
			c-24.6,0-35-25.2-44.7-43.8c-6-11.4-11.7-18.3-22.6-25.3c-2.2-1.4-4.7-2.9-7.4-2.8c-3.1,0.1-5.9,2.2-7.5,4.9
			c-1.6,2.7-2.4,5.8-3,8.8c-6.9,30.5-14.2,61.6-25.3,90.9c-27.8,72.8-41.7,148.1-39.9,226.2c1.1,47.6,11.6,94.1,13.6,141.6
			c0.5,12.5-2,25.6-9.7,35.8c-3.3,4.4-7.8,8.1-13,10.1c-4.8,1.9-17.5-0.2-14.5,8.9c2.2,6.9,12.2,8.6,18.4,8.8
			c14.8,0.4,30.1-1.5,44.9-2.6c15.3-1.1,30.5-3.2,45.1-8c25.1-8.3,49.5-19.9,75.7-24.7c54-9.8,110-6.3,164.3-0.1
			C741.2,826.7,771,840.4,801.3,851.4z"/>
		<g>
			<path class="st4" d="M773.1,853.3c33.5,12.5,66.8,27.3,103,29.2c8.3,0.4,18.4,0.6,25.4-4.5c7.4-5.4,6.7-17.7-1.7-21.7
				c-4.9-2.3-10.4-2.5-15.3-4.9c-4.8-2.4-8.9-6.7-12.1-10.9c-6.8-9-10.3-20.1-12.3-31.1c-4.4-24.2-2.1-49.2-1.1-73.6
				c1.4-32.4-1.6-65.3-4.8-97.6c-3.8-37.7-9-75.7-19.4-112.2c-9.8-34.1-23.5-66.9-34.9-100.4c-5.9-17.5-10.2-34.8-12.8-53
				c-2.4-16.7-5.3-33.3-12.7-48.6c-3.8-7.8-9.7-18.9-19.2-20.4c-12.1-1.9-19,9.8-22.8,19.3c-5.5,13.8-9.7,28.3-16.1,41.7
				c-3.1,6.6-6.9,14.2-14.5,16.2c-6.8,1.8-14.4,0.9-21.4,0.4c-16.6-1.3-33.4-0.4-50-0.2c-19.6,0.3-39.2,0.5-58.8,0.7
				c-10.1,0.1-20.3,0.2-30.4,0.2c-8.2,0-16.4,0.6-24-3.1c-11.5-5.6-18.7-17-24.6-27.8c-6.1-11.2-11-23.5-20.2-32.7
				c-7.4-7.4-20.4-18.1-30.2-8.3c-5.5,5.5-6,15.6-7.7,22.8c-2,8.9-4.1,17.7-6.3,26.6c-4.5,18-9.6,35.8-15.9,53.2
				c-12.6,34.6-23.9,69.4-31.4,105.5c-7.3,35.3-11.6,71.2-12.6,107.3c-1.1,37.8,2.7,74.9,7.5,112.3c2.4,19.1,4.9,38.2,6.2,57.5
				c0.8,12.3,4.7,34.7-8.2,42.5c-3.7,2.2-8.8,1.6-12.9,1.8c-4,0.1-8.1,0.4-11.8,1.8c-7.1,2.7-9.5,11.1-4.6,17.3
				c5.7,7.1,17.5,9.1,25.8,10.7c9.2,1.7,18.6,2.7,27.9,3.6c17.3,1.6,34.6-1.7,51.2-6.4c2.8-0.8,2.4-2.4-0.4-1.6
				c-17.4,4.9-34.4,7.3-52.4,5.5c-9.9-1-19.9-2.1-29.6-4.5c-7.9-2-19.1-5.1-20.1-14.7c-1.2-11.7,11.7-9.2,19.5-9.9
				c27.7-2.3,21.3-37.8,19.7-56.9c-3.1-36.2-9.5-72-12-108.2c-4.9-70.4,4.6-142.1,24.5-209.7c10-33.8,23.8-66.3,32.7-100.5
				c2.3-8.8,4.5-17.7,6.5-26.6c1.9-8.1,2.9-17,6-24.7c1.2-3.1,2.3-4.8,5.7-5.6c3.5-0.8,5.3,0.6,8.2,2.5c2.8,1.8,5.5,3.9,8,6.1
				c5.2,4.6,9.3,10.2,12.7,16.2c10.6,18.8,19.7,45.8,44.2,49.6c7.7,1.2,15.9,0.4,23.7,0.4c9.1,0,18.3-0.1,27.4-0.2
				c18.6-0.2,37.2-0.4,55.8-0.7c16.4-0.2,32.9-0.9,49.2,0.3c10.1,0.8,22.1,1.7,31-4c10.3-6.5,14.5-22.3,18.3-33.1
				c2.4-6.8,4.9-13.5,7.6-20.1c2.6-6.5,5-15.1,11.2-19.1c10.5-6.8,20.2,12.7,23.5,19.9c7,15.1,9.7,31.5,12.1,47.8
				c2.5,17.4,6.5,33.8,12.1,50.4c5.5,16.2,11.5,32.3,17.4,48.3c12,32.6,22.3,65.2,28.4,99.4c6.4,36.1,10.3,72.7,12.5,109.3
				c0.9,14.9,2,30,1.7,44.9c-0.2,11.2-1,22.4-1.4,33.6c-0.8,22.7-1.4,47.5,7.6,68.9c3.7,8.9,9.8,18.1,18.4,23
				c8.2,4.7,22.1,2.9,22.7,15.3c0.6,13.5-14.2,13-23.9,12.4c-17.6-1-34.8-5.3-51.6-10.8c-16.7-5.5-32.9-12.1-49.3-18.2
				C775.9,851,771.6,852.8,773.1,853.3L773.1,853.3z"/>
		</g>
		<g>
			<path class="st4" d="M530.9,838.9c48.6-11.7,100.7-9.5,150.1-5.1c1.1,0.1,5.5-1.8,3.1-2.1c-50.6-4.5-103.8-6.4-153.6,5.5
				C527.6,838,528,839.6,530.9,838.9L530.9,838.9z"/>
		</g>
		<path class="st3" d="M441.6,709c29.6,31.6,64.7,108.2,24.4,141.5c-5.3,4.4-14.9,13.6-7.7,20.2c3.8,3.5,10,3.4,15.3,2.4
			c18.2-3.3,34.9-13.3,45.6-27.3c5.3-7,9.4-12.1,13.2-20.5c8.9-19.6,17-39.3,28.1-57.9c13.1-21.9,35.3-45.2,61.7-40.3
			c23.6,4.4,35.4,28.4,43.6,49.4c6.2,15.8,10.7,32.3,18.8,47.3c14.3,26.3,38.5,39.1,69.6,42c4.4,0.4,9.5,0.4,12.7-2.4
			c3.5-3.1,3.4-8.6,1.1-12.7s-6.1-7.1-9.4-10.4c-16.4-16.1-19.2-42-15-63.2c4.8-24.2,19.3-45.7,34.1-65.7L441.6,709z"/>
		<path class="st0" d="M449.7,708.8c21.3,16.6,37.1,40.6,42.3,67.2c5.2,26.5-0.7,55.4-17.2,76.8c-3.7,4.7-8,11-4.8,16.1
			c2.7,4.2,8.7,3.2,13.5,1.9c14.9-4.1,26.3-15.4,33.5-29c7.3-13.6,11.1-28.7,15.9-43.4c5.6-16.9,12.6-33.4,21-49.2
			c18-34,75.8-44.8,103.1-15.7c10.6,11.3,15.6,26.5,19.9,41c4.6,15.8,8,32.3,14.2,47.3c10.7,26.3,29,39.1,52.4,42
			c3.3,0.4,7.1,0.4,9.5-2.4c2.7-3.1,2.5-8.6,0.8-12.7c-1.7-4.1-4.6-7.1-7.1-10.4c-14.4-18.8-17.3-44.2-12.8-66.9
			c2.3-11.4,6.4-22.4,12.5-32.4c3.2-5.2,6.9-10.1,11.1-14.6c2.6-2.8,11.4-13.4,15.5-13.3c-57.7-1.2-115.5-0.1-173.2-0.7
			C549.8,709.8,499.7,709.3,449.7,708.8z"/>
		<g>
			<path class="st4" d="M439.4,710c15.6,16.7,27.3,37.6,34.9,59.1c7.3,20.7,12,46.2,1.3,66.6c-2.6,4.9-6.1,9.3-10.2,13
				c-4.1,3.7-8.7,7.3-11,12.5c-1.9,4.4-0.9,8.9,3.1,11.6c4.7,3.2,11.2,2.7,16.5,1.7c28.4-5.3,50.2-25.8,61.8-51.6
				c12.7-28.2,24.2-60.4,47.9-81.4c11.5-10.2,26.5-16.7,41.8-11.8c12.5,4,21.3,14.4,27.7,25.4c14.8,25.4,18,56.6,36,80.3
				c15.2,20,39,29.5,63.4,31.9c5.4,0.5,11.7,0.6,16.1-3.2c4.1-3.6,4.1-9.5,1.8-14.1c-3.1-6-9.3-9.9-13.5-15.1
				c-4.4-5.5-7.6-11.9-9.6-18.7c-8.9-29.7,2.5-59.7,18.6-84.6c4.4-6.9,9.2-13.5,14.1-20c1.4-2-3.5-1.9-4.6-0.4
				c-17.4,23.5-34.4,49.3-35.9,79.4c-0.6,12.6,1.2,25.6,6.9,36.9c2.8,5.6,6.5,10.5,11,14.8c4.5,4.3,13.1,11.6,8.8,18.7
				c-3.8,6.4-18.5,2.4-24.4,1.2c-6.1-1.3-12.1-3-17.8-5.4c-11.3-4.8-21.4-12.2-29.1-21.8c-18.3-22.7-22-53.5-35.6-78.9
				c-5.4-10.1-12.6-19.8-22.6-25.7c-10.1-5.9-22.3-7.1-33.5-3.8c-25.9,7.7-41.9,33.3-53.5,55.9c-13.8,27.1-22.2,60-48.9,77.9
				c-6.4,4.3-13.4,7.5-20.8,9.6c-6.1,1.7-20.1,5.3-21.9-4.2c-1.1-5.9,5.9-11.4,9.7-14.8c3.8-3.3,7.2-6.9,9.9-11.1
				c11.5-17.7,10-40.7,4.9-60.2c-5.7-21.7-16.2-42.6-29.6-60.5c-2.9-3.9-6-7.6-9.3-11.2C442.5,706.5,437.9,708.4,439.4,710
				L439.4,710z"/>
		</g>
		<g>
			<circle class="st4" cx="517.3" cy="452.7" r="12"/>
			<circle class="st4" cx="680.7" cy="450" r="12"/>
			<g>
				<g>
					<path class="st4" d="M598.2,478.3c0,3.3,0,6.7,0,10c0,2.4,4.9,1.5,4.9-0.4c0-3.3,0-6.7,0-10
						C603.1,475.4,598.2,476.3,598.2,478.3L598.2,478.3z"/>
				</g>
				<g>
					<path class="st4" d="M597.7,488.4c-2.4,2.4-4.7,4.7-7.1,7.1c-0.8,0.8-0.4,1.8,0.6,2.1c1.1,0.4,2.6-0.1,3.4-0.9
						c2.4-2.4,4.7-4.7,7.1-7.1c0.8-0.8,0.4-1.8-0.6-2.1C600,487.1,598.5,487.6,597.7,488.4L597.7,488.4z"/>
				</g>
				<g>
					<path class="st4" d="M598.9,490.5c2.4,2.4,4.7,4.7,7.1,7.1c1.4,1.4,6-0.5,4.4-2.1c-2.4-2.4-4.7-4.7-7.1-7.1
						C601.9,487.1,597.3,489,598.9,490.5L598.9,490.5z"/>
				</g>
			</g>
			<path class="st4" d="M599.7,483.1l-12.9-7.3c-1.4-0.8-0.9-3,0.8-3h26.1c1.7,0,2.3,2.2,0.8,3l-13.2,7.3
				C600.8,483.4,600.2,483.4,599.7,483.1z"/>
		</g>
		<g class="st5">
			<circle class="st6" cx="498" cy="514" r="40"/>
			<circle class="st6" cx="710" cy="516" r="40"/>
		</g>
	</g>
</g>
</svg>
