<?xml version="1.0" standalone="no"?>
<!DOCTYPE svg PUBLIC "-//W3C//DTD SVG 20010904//EN"
 "http://www.w3.org/TR/2001/REC-SVG-20010904/DTD/svg10.dtd">
<svg version="1.0" xmlns="http://www.w3.org/2000/svg"
 width="640.000000pt" height="551.000000pt" viewBox="0 0 640.000000 551.000000"
 preserveAspectRatio="xMidYMid meet">

<g transform="translate(0.000000,551.000000) scale(0.100000,-0.100000)"
fill="#BD4147" stroke="none">
<path d="M3900 4935 l0 -235 1065 0 1065 0 0 235 0 235 -1065 0 -1065 0 0
-235z"/>
<path d="M360 4915 l0 -235 723 -2 722 -3 1159 -2173 1159 -2172 823 0 824 0
0 270 0 270 -660 0 -660 0 -14 22 c-7 13 -516 976 -1131 2141 l-1117 2117
-914 0 -914 0 0 -235z"/>
</g>
</svg>
