<?xml version="1.0" encoding="utf-8"?>
<!-- Generator: Adobe Illustrator 21.0.0, SVG Export Plug-In . SVG Version: 6.00 Build 0)  -->
<svg version="1.1" id="Layer_1" xmlns="http://www.w3.org/2000/svg" xmlns:xlink="http://www.w3.org/1999/xlink" x="0px" y="0px"
	 viewBox="0 0 50 50" style="enable-background:new 0 0 50 50;" xml:space="preserve">
<style type="text/css">
	.st0{fill:#FFFFFF;}
	.st1{fill:#BD4147;}
</style>
<rect x="-25" y="-25" class="st0" width="100" height="100"/>
<g>
	<path class="st1" d="M35,30h5c2.7,0,5.1,1,7.1,3c2,2,2.9,4.3,2.9,7.1c0,2.7-1,5.1-2.9,7.1c-2,2-4.3,3-7.1,3c-2.7,0-5.1-1-7-2.9
		c-2-2-3-4.3-3-7.1v-5H20v5c0,2.7-1,5-2.9,7c-2,2-4.3,3-7.1,3c-2.7,0-5-1-7-2.9c-2-1.9-3-4.3-3-7.1c0-2.8,1-5.1,3-7.1S7.3,30,10,30
		h5V20h-5c-2.7,0-5.1-1-7-2.9c-2-2-3-4.3-3-7.1s1-5.1,3-7.1S7.3,0,10,0c2.7,0,5.1,1,7,2.9c2,2,3,4.3,3,7.1v5h10v-5
		c0-2.7,1-5.1,3-7.1c2-2,4.3-2.9,7-2.9c2.7,0,5.1,1,7,2.9c2,2,3,4.3,3,7.1c0,2.7-1,5.1-2.9,7.1c-2,2-4.3,3-7.1,3h-5V30z M15,15v-5
		c0-1.3-0.5-2.5-1.5-3.5c-1-1-2.2-1.5-3.5-1.5C8.7,5,7.5,5.5,6.5,6.5C5.5,7.4,5,8.6,5,10c0,1.4,0.5,2.5,1.5,3.5c1,1,2.2,1.5,3.5,1.5
		H15z M15,35h-5c-1.4,0-2.6,0.5-3.5,1.5c-1,1-1.5,2.2-1.5,3.5s0.5,2.5,1.5,3.5c1,1,2.2,1.5,3.5,1.5c1.4,0,2.6-0.5,3.5-1.5
		c1-1,1.5-2.2,1.5-3.5V35z M30,30V20H20V30H30z M35,15h5c1.4,0,2.6-0.5,3.5-1.5c1-1,1.5-2.2,1.5-3.5s-0.5-2.5-1.5-3.5
		c-1-1-2.2-1.5-3.5-1.5c-1.4,0-2.6,0.5-3.5,1.5c-1,1-1.5,2.2-1.5,3.5V15z M35,35v5c0,1.4,0.5,2.5,1.5,3.5c1,1,2.2,1.5,3.5,1.5
		c1.4,0,2.5-0.5,3.5-1.5c1-1,1.5-2.2,1.5-3.5c0-1.4-0.5-2.5-1.5-3.5c-1-1-2.2-1.5-3.5-1.5H35z"/>
</g>
</svg>
